<svg width="127" height="23" viewBox="0 0 127 23" fill="none" xmlns="http://www.w3.org/2000/svg">
<g clip-path="url(#clip0_587_746)">
<path d="M23.5155 20.0493C23.5155 21.2861 23.7102 21.4321 24.6818 21.697L25.321 21.8742V22.8344H17.8786V21.8742L18.5453 21.697C19.5996 21.4321 19.6841 21.2549 19.6841 20.0493V3.23897C19.6841 1.88534 19.5739 1.73732 18.6298 1.26598L17.7408 0.853078V0.046744L23.431 0L23.6257 0.11686C23.6257 0.11686 23.5155 1.73537 23.5155 3.70836V20.0493Z" fill="black"/>
<path d="M31.2053 20.0493C31.2053 21.2861 31.4 21.4321 32.3716 21.697L33.0108 21.8742V22.8344H25.5702V21.8742L26.237 21.697C27.2913 21.4321 27.3757 21.2549 27.3757 20.0493V3.23897C27.3757 1.88534 27.2655 1.73732 26.3215 1.26598L25.4325 0.853078V0.046744L31.1208 0L31.3155 0.11686C31.3155 0.11686 31.2053 1.73537 31.2053 3.70836V20.0493Z" fill="black"/>
<path d="M46.8362 21.8746L47.2531 21.7265C48.1972 21.4324 48.4194 21.1091 49.3635 18.3123L55.0261 1.85645H57.164L62.744 18.5187C63.5779 20.9319 63.8552 21.4928 64.6597 21.7285L65.2144 21.8765V22.8367H56.5524V21.8765L57.2467 21.6993C58.1081 21.4636 58.3285 21.0819 58.3285 20.4625C58.3285 19.962 58.1063 19.0193 57.884 18.3727L56.9143 15.1921H51.3894L50.5004 17.9598C50.1404 19.0193 49.9733 19.7555 49.9733 20.3437C49.9733 21.0507 50.2782 21.4032 51.2498 21.6681L51.9716 21.8746V22.8348H46.8362V21.8746ZM51.8063 14.0703H56.3981L54.3043 6.47631H54.2216L51.8063 14.0703Z" fill="black"/>
<path d="M0 21.8741L0.416935 21.7261C1.36101 21.432 1.58325 21.1086 2.52733 18.3118L8.18993 1.854H10.3279L15.9078 18.5163C16.7417 20.9295 17.019 21.4904 17.8235 21.7261L18.3782 21.8741V22.8343H9.71625V21.8741L10.4105 21.6968C11.2719 21.4612 11.4924 21.0794 11.4924 20.4601C11.4924 19.9595 11.2701 19.0168 11.0479 18.3702L10.0781 15.1916H4.55323L3.66426 17.9573C3.30426 19.0168 3.13712 19.7531 3.13712 20.3413C3.13712 21.0483 3.44201 21.4008 4.41364 21.6657L5.13547 21.8721V22.8323H0V21.8741ZM4.97016 14.0698H9.56196L7.4681 6.47582H7.38545L4.97016 14.0698Z" fill="black"/>
<path d="M70.2973 20.0493C70.2973 21.4029 70.3799 21.4633 71.2965 21.7282L71.9081 21.8762V22.8364H64.6898V21.8762L65.3565 21.699C66.3832 21.4341 66.4383 21.3172 66.4383 20.0512V3.18054C66.4383 1.88534 66.3832 1.73732 65.4391 1.26598L64.5502 0.853078V0.046744L70.2146 0L70.4093 0.11686C70.4093 0.11686 70.2991 1.73537 70.2991 3.70836V20.0493H70.2973ZM70.3193 14.925V14.7185L73.4013 11.0686C74.5677 9.71496 74.845 8.94953 74.845 8.62427C74.845 8.12372 74.485 7.80041 73.7338 7.56474L73.3168 7.44788V6.66881H78.9795V7.44788L78.5644 7.5959C77.5652 7.89 76.9811 8.24448 75.9819 9.36244L73.2966 12.7066C74.7403 15.5619 76.926 19.0774 78.4248 20.9316C78.8142 21.4321 79.007 21.6094 79.5066 21.7847L79.8115 21.8723V22.8325H74.8983C73.0395 20.5089 71.5958 17.4569 70.3193 14.925Z" fill="black"/>
<path d="M81.2911 18.8126V8.30295H79.7079V8.00886C81.7907 7.18499 83.5117 5.38924 84.3438 3.32861H85.1482V6.6786H88.7299L88.7225 7.83941L85.1482 7.91342V18.7541C85.1482 20.3142 85.6203 20.7856 86.9813 20.7856C87.7307 20.7856 88.4525 20.6083 88.9245 20.433V21.2043C88.2578 21.9697 86.9537 22.9708 84.9554 22.9708C82.5401 22.9708 81.2911 21.4322 81.2911 18.8126Z" fill="black"/>
<path d="M89.7553 21.8744L90.422 21.6972C91.4488 21.4323 91.5057 21.3155 91.5057 20.1079V9.95082C91.5057 8.80365 91.3955 8.68484 90.479 8.12586L89.7002 7.59609V6.669L95.2802 6.68264L95.4749 6.77028C95.3922 7.62336 95.3647 8.65368 95.3647 10.3326V20.106C95.3647 21.3135 95.4473 21.4304 96.4759 21.6953L97.115 21.8725V22.8327H89.7571V21.8744H89.7553ZM93.3094 0.765625C94.4757 0.765625 95.3647 1.6187 95.3647 2.85547C95.3647 4.09224 94.4757 4.9161 93.3094 4.9161C92.143 4.9161 91.2541 4.09224 91.2541 2.85547C91.2541 1.6187 92.143 0.765625 93.3094 0.765625Z" fill="black"/>
<path d="M97.1996 14.7789C97.1996 9.68576 100.614 6.62402 104.278 6.62402C107.998 6.62402 110.303 8.68466 110.33 13.6609H101.086C101.086 18.8417 102.807 20.5206 105.917 20.5206C107.527 20.5206 108.804 20.1077 109.888 19.4903V20.322C108.916 21.5879 106.973 23 104.335 23C99.4771 23 97.1996 19.6948 97.1996 14.7789ZM101.086 12.7066L106.501 12.7475C106.501 8.7723 105.902 7.44789 104.153 7.44789C102.432 7.44789 101.198 8.52689 101.086 12.7066Z" fill="black"/>
<path d="M32.9147 14.7789C32.9147 9.68576 36.3291 6.62402 39.9934 6.62402C43.7127 6.62402 46.0178 8.68466 46.0454 13.6609H36.8012C36.8012 18.8417 38.5222 20.5206 41.6317 20.5206C43.2425 20.5206 44.5191 20.1077 45.6027 19.4903V20.322C44.6311 21.5879 42.6879 23 40.0503 23C35.1922 23 32.9147 19.6948 32.9147 14.7789ZM36.8012 12.7066L42.2158 12.7475C42.2158 8.7723 41.617 7.44789 39.8685 7.44789C38.1475 7.44789 36.9132 8.52689 36.8012 12.7066Z" fill="black"/>
<path d="M110.76 21.8743L111.427 21.697C112.453 21.4321 112.51 21.3153 112.51 20.1077V9.95064C112.51 8.7723 112.4 8.68466 111.511 8.12568L110.762 7.62513V7.36024L116.12 6.68245L116.314 6.7701L116.287 8.7723H116.342C117.758 7.71277 119.646 6.62402 121.589 6.62402C124.032 6.62402 125.226 7.91922 125.226 10.568V20.1058C125.226 21.3425 125.309 21.4302 126.308 21.6951L127.002 21.8723V22.8384H119.729V21.8723L120.368 21.7243C121.284 21.4886 121.367 21.401 121.367 20.1058V11.3023C121.367 9.41893 120.785 8.79957 119.396 8.79957C118.035 8.79957 116.944 9.35271 116.278 9.58837L116.369 20.1058C116.369 21.401 116.452 21.4886 117.369 21.7243L118.035 21.8723V22.8384H110.762V21.8743H110.76Z" fill="black"/>
<path d="M16.8846 20.9062C16.8846 20.9062 17.2758 21.6658 18.1941 21.6658C19.1125 21.6658 19.6984 21.3171 19.6819 20.3238C19.6635 19.3286 20.3982 21.0815 20.3982 21.0815L18.9288 22.0553H17.3988L16.3574 21.471L16.8846 20.9062Z" fill="black"/>
<path d="M63.7212 20.9064C63.7212 20.9064 64.1125 21.666 65.0308 21.666C65.9492 21.666 66.5351 21.3173 66.5186 20.324C66.502 19.3307 67.2349 21.0817 67.2349 21.0817L65.7655 22.0555H64.2355L63.1941 21.4712L63.7212 20.9064Z" fill="black"/>
<path d="M23.5205 20.1076C23.5205 20.1076 23.1532 21.6658 25.3903 21.6658C26.6007 21.6658 27.3739 21.3171 27.3501 20.3238C27.3262 19.3286 28.296 21.0815 28.296 21.0815L26.3582 22.0553H24.3415L22.9677 21.471L23.5205 20.1076Z" fill="black"/>
<path d="M25.2072 22.2561H25.9455V21.8354H25.04L25.2072 22.2561Z" fill="black"/>
<path d="M25.7252 22.0552H24.4395V22.8342H25.7252V22.0552Z" fill="black"/>
<path d="M70.2966 14.2471C70.2966 14.2471 70.3224 14.4185 70.3573 14.4613C70.4362 14.5587 70.4417 14.5042 70.7668 14.1906C71.0919 13.877 70.7246 14.6561 70.7246 14.6561L70.1736 14.8509L70.2966 14.2471Z" fill="black"/>
<path d="M70.2966 15.4954C70.2966 15.4954 70.3224 15.324 70.3573 15.2811C70.4362 15.1838 70.4417 15.2383 70.7668 15.5519C71.0919 15.8654 70.7246 15.0864 70.7246 15.0864L70.1736 14.8916L70.2966 15.4954Z" fill="black"/>
<path d="M70.5409 14.6543H70.1736V15.0438H70.5409V14.6543Z" fill="black"/>
</g>
<defs>
<clipPath id="clip0_587_746">
<rect width="127" height="23" fill="white"/>
</clipPath>
</defs>
</svg>
